<?xml version="1.0" encoding="UTF-8"?> <svg xmlns="http://www.w3.org/2000/svg" width="464" height="91" viewBox="0 0 464 91" fill="none"><path d="M56.4707 58.7634C56.5605 55.7898 56.0317 52.8162 54.9241 50.0521C53.8164 47.2781 52.15 44.7635 50.0246 42.6481C47.8992 40.5326 45.3647 38.8762 42.5807 37.7686C39.7967 36.661 36.8031 36.1221 33.7896 36.202C20.3885 36.202 10.879 45.6217 10.879 58.7634C10.879 71.905 20.4084 81.4744 33.7896 81.4744C47.1708 81.4744 56.4508 71.5558 56.4508 58.7634H56.4707ZM58.1471 28.0695H67.1876V89.5869H56.5705V75.1381C52.7188 84.5777 43.5586 90.7844 31.2451 90.7844C12.4356 90.7844 0.122162 76.7047 0.122162 58.6536C0.122162 40.6025 12.6651 26.7623 31.8438 26.7623C36.9328 26.7025 41.942 28.0396 46.3026 30.634C50.6732 33.2284 54.2156 36.9703 56.5605 41.4507V42.0793L58.1371 28.0795L58.1471 28.0695Z" fill="#131414"></path><path d="M91.0362 0H80.5488V89.5969H91.0362V0Z" fill="#131414"></path><path d="M114.965 0H104.467V89.5969H114.965V0Z" fill="#131414"></path><path d="M217.474 28.0695L196.968 89.5869H186.231C173.688 51.958 172.012 46.1006 170.555 37.9881C168.998 46.1006 167.202 51.8383 154.529 89.5869H143.793L123.287 28.0695H134.373C146.317 65.2194 148.123 71.3263 149.7 79.798C151.376 71.3163 153.322 64.98 165.496 28.0695H175.983C187.708 64.022 189.614 69.9991 191.43 78.9598C193.106 71.0768 194.932 64.7604 206.617 28.0695H217.474Z" fill="#131414"></path><path d="M283.202 53.3949V89.5969H272.465V54.8318C272.465 40.4927 264.093 35.8328 255.093 35.8328C243.368 35.8328 236.283 43.4863 236.283 56.2588V89.5869H225.796V0H236.283V39.6545C240.265 31.3624 247.619 26.7623 258.056 26.7623C271.368 26.7623 283.202 34.5256 283.202 53.3949Z" fill="#131414"></path><path d="M302.251 53.9737H344.121C343.732 43.4863 335.479 35.4436 323.356 35.4436C311.9 35.4436 303.109 43.2368 302.251 53.9936V53.9737ZM355.077 61.9864H302.251C302.969 74.0504 312.299 82.0631 324.443 82.0631C334.691 82.0631 341.197 76.4353 343.991 70.5779L353.271 71.6556C350.018 82.0631 339.032 90.7644 324.323 90.7644C305.634 90.7644 291.764 78.1017 291.764 58.7434C291.764 40.7123 305.025 26.7424 323.356 26.7424C342.295 26.7623 355.446 40.2433 355.077 61.9864Z" fill="#131414"></path><path d="M374.725 38.2276C378.227 30.9433 384.773 26.3931 396.079 27.84L395.959 37.0302C382.807 35.2341 375.204 40.7322 375.204 51.5988V89.5969H364.716V28.0695H373.507L374.715 38.2276H374.725Z" fill="#131414"></path><path d="M452.168 53.9737C451.799 43.4763 443.477 35.3438 431.413 35.3438C419.937 35.4436 411.146 43.2368 410.288 53.9936V53.9737H452.168ZM463.124 61.9864H410.298C411.017 74.0504 420.436 82.0631 432.49 82.0631C442.738 82.0631 449.244 76.4353 452.038 70.5779L461.318 71.6556C458.065 82.0631 447.079 90.7644 432.371 90.7644C413.681 90.7644 399.811 78.1017 399.811 58.7434C399.811 40.7123 413.072 26.7424 431.403 26.7424C450.342 26.7623 463.494 40.2433 463.124 61.9864Z" fill="#131414"></path></svg> 
